<mxfile host="app.diagrams.net" agent="Mozilla/5.0 (Windows NT 10.0; Win64; x64) AppleWebKit/537.36 (KHTML, like Gecko) Chrome/131.0.0.0 Safari/537.36" version="25.0.1">
  <diagram id="prtHgNgQTEPvFCAcTncT" name="Page-1">
    <mxGraphModel dx="1728" dy="950" grid="1" gridSize="10" guides="1" tooltips="1" connect="1" arrows="1" fold="1" page="1" pageScale="1" pageWidth="827" pageHeight="1169" math="0" shadow="0">
      <root>
        <mxCell id="0" />
        <mxCell id="1" parent="0" />
        <mxCell id="S9EUZcToGmtCzxnMtm0F-3" value="&lt;font style=&quot;font-size: 16px;&quot;&gt;Browser&lt;/font&gt;" style="rounded=1;whiteSpace=wrap;html=1;verticalAlign=bottom;" vertex="1" parent="1">
          <mxGeometry x="170" y="170" width="630" height="170" as="geometry" />
        </mxCell>
        <mxCell id="S9EUZcToGmtCzxnMtm0F-2" value="" style="endArrow=none;html=1;rounded=0;" edge="1" parent="1">
          <mxGeometry width="50" height="50" relative="1" as="geometry">
            <mxPoint x="160" y="1080" as="sourcePoint" />
            <mxPoint x="160" y="160" as="targetPoint" />
          </mxGeometry>
        </mxCell>
        <mxCell id="S9EUZcToGmtCzxnMtm0F-4" value="&lt;font style=&quot;font-size: 16px;&quot;&gt;HTML&lt;/font&gt;" style="rounded=1;whiteSpace=wrap;html=1;" vertex="1" parent="1">
          <mxGeometry x="200" y="245" width="170" height="60" as="geometry" />
        </mxCell>
        <mxCell id="S9EUZcToGmtCzxnMtm0F-5" value="&lt;font style=&quot;font-size: 16px;&quot;&gt;CSS&lt;/font&gt;" style="rounded=1;whiteSpace=wrap;html=1;" vertex="1" parent="1">
          <mxGeometry x="400" y="245" width="170" height="60" as="geometry" />
        </mxCell>
        <mxCell id="S9EUZcToGmtCzxnMtm0F-6" value="&lt;font style=&quot;font-size: 16px;&quot;&gt;JS&lt;/font&gt;" style="rounded=1;whiteSpace=wrap;html=1;" vertex="1" parent="1">
          <mxGeometry x="600" y="245" width="170" height="60" as="geometry" />
        </mxCell>
        <mxCell id="S9EUZcToGmtCzxnMtm0F-7" value="&lt;font style=&quot;font-size: 16px;&quot;&gt;Caddy Web Server&lt;/font&gt;" style="rounded=1;whiteSpace=wrap;html=1;" vertex="1" parent="1">
          <mxGeometry x="170" y="380" width="630" height="90" as="geometry" />
        </mxCell>
        <mxCell id="S9EUZcToGmtCzxnMtm0F-8" value="" style="endArrow=classic;html=1;rounded=0;fontFamily=Helvetica;fontSize=12;fontColor=default;entryX=0.5;entryY=0;entryDx=0;entryDy=0;exitX=0.5;exitY=0;exitDx=0;exitDy=0;" edge="1" parent="1" source="S9EUZcToGmtCzxnMtm0F-6" target="S9EUZcToGmtCzxnMtm0F-4">
          <mxGeometry width="50" height="50" relative="1" as="geometry">
            <mxPoint x="330" y="410" as="sourcePoint" />
            <mxPoint x="380" y="360" as="targetPoint" />
            <Array as="points">
              <mxPoint x="685" y="210" />
              <mxPoint x="285" y="210" />
            </Array>
          </mxGeometry>
        </mxCell>
        <mxCell id="S9EUZcToGmtCzxnMtm0F-9" value="&lt;font style=&quot;font-size: 16px;&quot;&gt;vue.js&lt;/font&gt;" style="edgeLabel;html=1;align=center;verticalAlign=middle;resizable=0;points=[];rounded=1;strokeColor=default;fontFamily=Helvetica;fontSize=12;fontColor=default;fillColor=default;" vertex="1" connectable="0" parent="S9EUZcToGmtCzxnMtm0F-8">
          <mxGeometry x="-0.0669" y="3" relative="1" as="geometry">
            <mxPoint x="-15" y="-13" as="offset" />
          </mxGeometry>
        </mxCell>
        <mxCell id="S9EUZcToGmtCzxnMtm0F-15" value="" style="group;align=left;" vertex="1" connectable="0" parent="1">
          <mxGeometry x="170" y="510" width="630" height="130" as="geometry" />
        </mxCell>
        <mxCell id="S9EUZcToGmtCzxnMtm0F-33" value="" style="group" vertex="1" connectable="0" parent="S9EUZcToGmtCzxnMtm0F-15">
          <mxGeometry width="630" height="130" as="geometry" />
        </mxCell>
        <mxCell id="S9EUZcToGmtCzxnMtm0F-10" value="&lt;blockquote style=&quot;margin: 0 0 0 40px; border: none; padding: 0px;&quot;&gt;&lt;font style=&quot;font-size: 16px;&quot;&gt;Python&lt;/font&gt;&lt;/blockquote&gt;" style="rounded=1;whiteSpace=wrap;html=1;strokeColor=default;align=left;verticalAlign=middle;fontFamily=Helvetica;fontSize=12;fontColor=default;fillColor=default;" vertex="1" parent="S9EUZcToGmtCzxnMtm0F-33">
          <mxGeometry width="630" height="130" as="geometry" />
        </mxCell>
        <mxCell id="S9EUZcToGmtCzxnMtm0F-11" value="&lt;blockquote style=&quot;margin: 0 0 0 40px; border: none; padding: 0px;&quot;&gt;&lt;font style=&quot;font-size: 16px;&quot;&gt;Django&lt;/font&gt;&lt;/blockquote&gt;" style="rounded=1;whiteSpace=wrap;html=1;strokeColor=default;align=left;verticalAlign=middle;fontFamily=Helvetica;fontSize=12;fontColor=default;fillColor=default;" vertex="1" parent="S9EUZcToGmtCzxnMtm0F-33">
          <mxGeometry x="110" y="15" width="497.89" height="100" as="geometry" />
        </mxCell>
        <mxCell id="S9EUZcToGmtCzxnMtm0F-12" value="&lt;font style=&quot;font-size: 16px;&quot;&gt;URL Router&lt;/font&gt;" style="rounded=1;whiteSpace=wrap;html=1;strokeColor=default;align=center;verticalAlign=middle;fontFamily=Helvetica;fontSize=12;fontColor=default;fillColor=default;" vertex="1" parent="S9EUZcToGmtCzxnMtm0F-33">
          <mxGeometry x="430" y="35" width="144.74" height="60" as="geometry" />
        </mxCell>
        <mxCell id="S9EUZcToGmtCzxnMtm0F-31" value="&lt;font style=&quot;font-size: 16px;&quot;&gt;Active View&lt;/font&gt;" style="rounded=1;whiteSpace=wrap;html=1;strokeColor=default;align=center;verticalAlign=middle;fontFamily=Helvetica;fontSize=12;fontColor=default;fillColor=default;" vertex="1" parent="S9EUZcToGmtCzxnMtm0F-33">
          <mxGeometry x="244" y="35" width="145" height="60" as="geometry" />
        </mxCell>
        <mxCell id="S9EUZcToGmtCzxnMtm0F-35" value="" style="edgeStyle=orthogonalEdgeStyle;rounded=0;orthogonalLoop=1;jettySize=auto;html=1;fontFamily=Helvetica;fontSize=12;fontColor=default;entryX=0.5;entryY=0;entryDx=0;entryDy=0;" edge="1" parent="1" target="S9EUZcToGmtCzxnMtm0F-12">
          <mxGeometry relative="1" as="geometry">
            <mxPoint x="672" y="470" as="sourcePoint" />
            <Array as="points">
              <mxPoint x="672" y="470" />
              <mxPoint x="672" y="500" />
            </Array>
          </mxGeometry>
        </mxCell>
        <mxCell id="S9EUZcToGmtCzxnMtm0F-13" value="" style="endArrow=classic;html=1;rounded=0;fontFamily=Helvetica;fontSize=12;fontColor=default;exitX=0.5;exitY=1;exitDx=0;exitDy=0;startArrow=classic;startFill=1;" edge="1" parent="1" source="S9EUZcToGmtCzxnMtm0F-6">
          <mxGeometry width="50" height="50" relative="1" as="geometry">
            <mxPoint x="330" y="400" as="sourcePoint" />
            <mxPoint x="685" y="380" as="targetPoint" />
          </mxGeometry>
        </mxCell>
        <mxCell id="S9EUZcToGmtCzxnMtm0F-14" value="&lt;font style=&quot;font-size: 16px;&quot;&gt;axios.js&lt;/font&gt;" style="edgeLabel;html=1;align=center;verticalAlign=middle;resizable=0;points=[];rounded=1;strokeColor=default;fontFamily=Helvetica;fontSize=12;fontColor=default;fillColor=default;" vertex="1" connectable="0" parent="S9EUZcToGmtCzxnMtm0F-13">
          <mxGeometry x="-0.7009" y="-1" relative="1" as="geometry">
            <mxPoint x="36" y="4" as="offset" />
          </mxGeometry>
        </mxCell>
        <mxCell id="S9EUZcToGmtCzxnMtm0F-16" value="" style="endArrow=none;dashed=1;html=1;dashPattern=1 3;strokeWidth=2;rounded=0;" edge="1" parent="1">
          <mxGeometry width="50" height="50" relative="1" as="geometry">
            <mxPoint x="40" y="490" as="sourcePoint" />
            <mxPoint x="830" y="490" as="targetPoint" />
          </mxGeometry>
        </mxCell>
        <mxCell id="S9EUZcToGmtCzxnMtm0F-17" value="" style="rounded=1;whiteSpace=wrap;html=1;" vertex="1" parent="1">
          <mxGeometry x="170" y="680" width="630" height="110" as="geometry" />
        </mxCell>
        <mxCell id="S9EUZcToGmtCzxnMtm0F-18" value="" style="endArrow=none;dashed=1;html=1;dashPattern=1 3;strokeWidth=2;rounded=0;" edge="1" parent="1">
          <mxGeometry width="50" height="50" relative="1" as="geometry">
            <mxPoint x="40" y="660" as="sourcePoint" />
            <mxPoint x="830" y="660" as="targetPoint" />
          </mxGeometry>
        </mxCell>
        <mxCell id="S9EUZcToGmtCzxnMtm0F-43" value="" style="edgeStyle=orthogonalEdgeStyle;rounded=0;orthogonalLoop=1;jettySize=auto;html=1;fontFamily=Helvetica;fontSize=12;fontColor=default;" edge="1" parent="1" source="S9EUZcToGmtCzxnMtm0F-19" target="S9EUZcToGmtCzxnMtm0F-22">
          <mxGeometry relative="1" as="geometry">
            <Array as="points">
              <mxPoint x="285" y="800" />
              <mxPoint x="330" y="800" />
            </Array>
          </mxGeometry>
        </mxCell>
        <mxCell id="S9EUZcToGmtCzxnMtm0F-19" value="&lt;font style=&quot;font-size: 16px;&quot;&gt;View Function&lt;/font&gt;" style="rounded=1;whiteSpace=wrap;html=1;strokeColor=default;align=center;verticalAlign=middle;fontFamily=Helvetica;fontSize=12;fontColor=default;fillColor=default;" vertex="1" parent="1">
          <mxGeometry x="200" y="705" width="170" height="60" as="geometry" />
        </mxCell>
        <mxCell id="S9EUZcToGmtCzxnMtm0F-45" value="" style="edgeStyle=orthogonalEdgeStyle;rounded=0;orthogonalLoop=1;jettySize=auto;html=1;fontFamily=Helvetica;fontSize=12;fontColor=default;entryX=0.5;entryY=0;entryDx=0;entryDy=0;" edge="1" parent="1" source="S9EUZcToGmtCzxnMtm0F-20" target="S9EUZcToGmtCzxnMtm0F-22">
          <mxGeometry relative="1" as="geometry">
            <Array as="points">
              <mxPoint x="485" y="800" />
              <mxPoint x="330" y="800" />
            </Array>
          </mxGeometry>
        </mxCell>
        <mxCell id="S9EUZcToGmtCzxnMtm0F-20" value="&lt;font style=&quot;font-size: 16px;&quot;&gt;View Function&lt;/font&gt;" style="rounded=1;whiteSpace=wrap;html=1;strokeColor=default;align=center;verticalAlign=middle;fontFamily=Helvetica;fontSize=12;fontColor=default;fillColor=default;" vertex="1" parent="1">
          <mxGeometry x="400" y="705" width="170" height="60" as="geometry" />
        </mxCell>
        <mxCell id="S9EUZcToGmtCzxnMtm0F-46" value="" style="edgeStyle=orthogonalEdgeStyle;rounded=0;orthogonalLoop=1;jettySize=auto;html=1;fontFamily=Helvetica;fontSize=12;fontColor=default;entryX=0.5;entryY=0;entryDx=0;entryDy=0;exitX=0.475;exitY=0.983;exitDx=0;exitDy=0;exitPerimeter=0;" edge="1" parent="1" source="S9EUZcToGmtCzxnMtm0F-21" target="S9EUZcToGmtCzxnMtm0F-22">
          <mxGeometry relative="1" as="geometry">
            <Array as="points">
              <mxPoint x="681" y="800" />
              <mxPoint x="330" y="800" />
            </Array>
          </mxGeometry>
        </mxCell>
        <mxCell id="S9EUZcToGmtCzxnMtm0F-21" value="&lt;font style=&quot;font-size: 16px;&quot;&gt;View Function&lt;/font&gt;" style="rounded=1;whiteSpace=wrap;html=1;strokeColor=default;align=center;verticalAlign=middle;fontFamily=Helvetica;fontSize=12;fontColor=default;fillColor=default;" vertex="1" parent="1">
          <mxGeometry x="600" y="705" width="170" height="60" as="geometry" />
        </mxCell>
        <mxCell id="S9EUZcToGmtCzxnMtm0F-48" value="" style="edgeStyle=orthogonalEdgeStyle;rounded=0;orthogonalLoop=1;jettySize=auto;html=1;fontFamily=Helvetica;fontSize=12;fontColor=default;" edge="1" parent="1" source="S9EUZcToGmtCzxnMtm0F-22" target="S9EUZcToGmtCzxnMtm0F-26">
          <mxGeometry relative="1" as="geometry">
            <Array as="points">
              <mxPoint x="330" y="950" />
              <mxPoint x="485" y="950" />
            </Array>
          </mxGeometry>
        </mxCell>
        <mxCell id="S9EUZcToGmtCzxnMtm0F-22" value="&lt;font style=&quot;font-size: 16px;&quot;&gt;ORM&lt;span style=&quot;color: rgb(85, 85, 85); font-family: &amp;quot;Times New Roman&amp;quot;, Georgia, &amp;quot;DejaVu Serif&amp;quot;, serif; font-size: 13px; text-align: start; background-color: rgb(255, 255, 255);&quot;&gt;（Object-Relational Mapping）&lt;/span&gt;&lt;/font&gt;" style="rounded=1;whiteSpace=wrap;html=1;" vertex="1" parent="1">
          <mxGeometry x="170" y="830" width="320" height="90" as="geometry" />
        </mxCell>
        <mxCell id="S9EUZcToGmtCzxnMtm0F-23" value="" style="endArrow=none;dashed=1;html=1;dashPattern=1 3;strokeWidth=2;rounded=0;" edge="1" parent="1">
          <mxGeometry width="50" height="50" relative="1" as="geometry">
            <mxPoint x="40" y="810" as="sourcePoint" />
            <mxPoint x="830" y="810" as="targetPoint" />
          </mxGeometry>
        </mxCell>
        <mxCell id="S9EUZcToGmtCzxnMtm0F-24" value="&lt;font style=&quot;font-size: 16px;&quot;&gt;Redis&lt;/font&gt;" style="rounded=1;whiteSpace=wrap;html=1;" vertex="1" parent="1">
          <mxGeometry x="500" y="830" width="300" height="90" as="geometry" />
        </mxCell>
        <mxCell id="S9EUZcToGmtCzxnMtm0F-25" value="" style="endArrow=none;dashed=1;html=1;dashPattern=1 3;strokeWidth=2;rounded=0;" edge="1" parent="1">
          <mxGeometry width="50" height="50" relative="1" as="geometry">
            <mxPoint x="40" y="940" as="sourcePoint" />
            <mxPoint x="830" y="940" as="targetPoint" />
          </mxGeometry>
        </mxCell>
        <mxCell id="S9EUZcToGmtCzxnMtm0F-26" value="&lt;font style=&quot;font-size: 16px;&quot;&gt;GaussDB (for MySQL)&lt;/font&gt;" style="rounded=1;whiteSpace=wrap;html=1;" vertex="1" parent="1">
          <mxGeometry x="170" y="970" width="630" height="90" as="geometry" />
        </mxCell>
        <mxCell id="S9EUZcToGmtCzxnMtm0F-36" value="" style="edgeStyle=orthogonalEdgeStyle;rounded=0;orthogonalLoop=1;jettySize=auto;html=1;fontFamily=Helvetica;fontSize=12;fontColor=default;entryX=0.5;entryY=0;entryDx=0;entryDy=0;" edge="1" parent="1" source="S9EUZcToGmtCzxnMtm0F-12" target="S9EUZcToGmtCzxnMtm0F-19">
          <mxGeometry relative="1" as="geometry">
            <Array as="points">
              <mxPoint x="672" y="670" />
              <mxPoint x="285" y="670" />
            </Array>
          </mxGeometry>
        </mxCell>
        <mxCell id="S9EUZcToGmtCzxnMtm0F-38" value="" style="edgeStyle=orthogonalEdgeStyle;rounded=0;orthogonalLoop=1;jettySize=auto;html=1;fontFamily=Helvetica;fontSize=12;fontColor=default;entryX=0.5;entryY=0;entryDx=0;entryDy=0;exitX=0.5;exitY=1;exitDx=0;exitDy=0;" edge="1" parent="1" source="S9EUZcToGmtCzxnMtm0F-12" target="S9EUZcToGmtCzxnMtm0F-20">
          <mxGeometry relative="1" as="geometry">
            <mxPoint x="682" y="615" as="sourcePoint" />
            <mxPoint x="295" y="715" as="targetPoint" />
            <Array as="points">
              <mxPoint x="672" y="670" />
              <mxPoint x="485" y="670" />
            </Array>
          </mxGeometry>
        </mxCell>
        <mxCell id="S9EUZcToGmtCzxnMtm0F-41" value="" style="endArrow=classic;html=1;rounded=0;fontFamily=Helvetica;fontSize=12;fontColor=default;exitX=0.75;exitY=1;exitDx=0;exitDy=0;" edge="1" parent="1" source="S9EUZcToGmtCzxnMtm0F-21">
          <mxGeometry width="50" height="50" relative="1" as="geometry">
            <mxPoint x="450" y="760" as="sourcePoint" />
            <mxPoint x="728" y="829" as="targetPoint" />
          </mxGeometry>
        </mxCell>
        <mxCell id="S9EUZcToGmtCzxnMtm0F-49" value="" style="endArrow=classic;html=1;rounded=0;fontFamily=Helvetica;fontSize=12;fontColor=default;exitX=0.5;exitY=1;exitDx=0;exitDy=0;entryX=0.5;entryY=0;entryDx=0;entryDy=0;" edge="1" parent="1" source="S9EUZcToGmtCzxnMtm0F-12" target="S9EUZcToGmtCzxnMtm0F-21">
          <mxGeometry width="50" height="50" relative="1" as="geometry">
            <mxPoint x="530" y="710" as="sourcePoint" />
            <mxPoint x="672" y="700" as="targetPoint" />
            <Array as="points">
              <mxPoint x="672" y="670" />
              <mxPoint x="685" y="670" />
            </Array>
          </mxGeometry>
        </mxCell>
        <mxCell id="S9EUZcToGmtCzxnMtm0F-50" value="" style="edgeStyle=orthogonalEdgeStyle;rounded=0;orthogonalLoop=1;jettySize=auto;html=1;fontFamily=Helvetica;fontSize=12;fontColor=default;" edge="1" parent="1" source="S9EUZcToGmtCzxnMtm0F-31">
          <mxGeometry relative="1" as="geometry">
            <mxPoint x="486" y="470" as="targetPoint" />
            <Array as="points">
              <mxPoint x="480" y="550" />
              <mxPoint x="480" y="550" />
            </Array>
          </mxGeometry>
        </mxCell>
        <mxCell id="S9EUZcToGmtCzxnMtm0F-51" value="" style="endArrow=classic;html=1;rounded=0;fontFamily=Helvetica;fontSize=12;fontColor=default;entryX=0.5;entryY=1;entryDx=0;entryDy=0;" edge="1" parent="1" target="S9EUZcToGmtCzxnMtm0F-31">
          <mxGeometry width="50" height="50" relative="1" as="geometry">
            <mxPoint x="487" y="670" as="sourcePoint" />
            <mxPoint x="340" y="590" as="targetPoint" />
          </mxGeometry>
        </mxCell>
        <mxCell id="S9EUZcToGmtCzxnMtm0F-52" value="" style="endArrow=none;dashed=1;html=1;dashPattern=1 3;strokeWidth=2;rounded=0;" edge="1" parent="1">
          <mxGeometry width="50" height="50" relative="1" as="geometry">
            <mxPoint x="40" y="360" as="sourcePoint" />
            <mxPoint x="830" y="360" as="targetPoint" />
          </mxGeometry>
        </mxCell>
        <mxCell id="S9EUZcToGmtCzxnMtm0F-53" value="&lt;font style=&quot;font-size: 16px;&quot;&gt;用户设备&lt;/font&gt;" style="text;html=1;align=center;verticalAlign=middle;whiteSpace=wrap;rounded=0;fontFamily=Helvetica;fontSize=12;fontColor=default;" vertex="1" parent="1">
          <mxGeometry x="30" y="240" width="130" height="30" as="geometry" />
        </mxCell>
        <mxCell id="S9EUZcToGmtCzxnMtm0F-54" value="&lt;font style=&quot;font-size: 16px;&quot;&gt;Web 服务器&lt;/font&gt;" style="text;html=1;align=center;verticalAlign=middle;whiteSpace=wrap;rounded=0;fontFamily=Helvetica;fontSize=12;fontColor=default;" vertex="1" parent="1">
          <mxGeometry x="30" y="410" width="130" height="30" as="geometry" />
        </mxCell>
        <mxCell id="S9EUZcToGmtCzxnMtm0F-55" value="&lt;font style=&quot;font-size: 16px;&quot;&gt;框架路由&lt;/font&gt;" style="text;html=1;align=center;verticalAlign=middle;whiteSpace=wrap;rounded=0;fontFamily=Helvetica;fontSize=12;fontColor=default;" vertex="1" parent="1">
          <mxGeometry x="30" y="560" width="130" height="30" as="geometry" />
        </mxCell>
        <mxCell id="S9EUZcToGmtCzxnMtm0F-56" value="&lt;font style=&quot;font-size: 16px;&quot;&gt;控制器&lt;/font&gt;" style="text;html=1;align=center;verticalAlign=middle;whiteSpace=wrap;rounded=0;fontFamily=Helvetica;fontSize=12;fontColor=default;" vertex="1" parent="1">
          <mxGeometry x="30" y="720" width="130" height="30" as="geometry" />
        </mxCell>
        <mxCell id="S9EUZcToGmtCzxnMtm0F-57" value="&lt;font style=&quot;font-size: 16px;&quot;&gt;对象映射&lt;/font&gt;&lt;div&gt;&lt;font style=&quot;font-size: 16px;&quot;&gt;与&lt;/font&gt;&lt;/div&gt;&lt;div&gt;&lt;font style=&quot;font-size: 16px;&quot;&gt;字典服务&lt;/font&gt;&lt;/div&gt;" style="text;html=1;align=center;verticalAlign=middle;whiteSpace=wrap;rounded=0;fontFamily=Helvetica;fontSize=12;fontColor=default;" vertex="1" parent="1">
          <mxGeometry x="35" y="860" width="120" height="30" as="geometry" />
        </mxCell>
        <mxCell id="S9EUZcToGmtCzxnMtm0F-58" value="&lt;font style=&quot;font-size: 16px;&quot;&gt;云数据库&lt;/font&gt;" style="text;html=1;align=center;verticalAlign=middle;whiteSpace=wrap;rounded=0;fontFamily=Helvetica;fontSize=12;fontColor=default;" vertex="1" parent="1">
          <mxGeometry x="30" y="1000" width="130" height="30" as="geometry" />
        </mxCell>
      </root>
    </mxGraphModel>
  </diagram>
</mxfile>
